<svg width="200" height="198" viewBox="0 0 200 198" fill="none" xmlns="http://www.w3.org/2000/svg">
<ellipse cx="100" cy="31.3015" rx="11.7647" ry="31.3015" fill="#262626"/>
<ellipse cx="168.382" cy="97.544" rx="11.6471" ry="31.6176" transform="rotate(90 168.382 97.544)" fill="#262626"/>
<ellipse cx="100" cy="166.699" rx="11.7647" ry="31.3015" transform="rotate(180 100 166.699)" fill="#262626"/>
<ellipse cx="31.6176" cy="98.9999" rx="11.6471" ry="31.6176" transform="rotate(-90 31.6176 98.9999)" fill="#262626"/>
<ellipse cx="11.706" cy="31.46" rx="11.706" ry="31.46" transform="matrix(0.710651 -0.703545 0.710651 0.703545 13.9706 30.3022)" fill="#262626"/>
<ellipse cx="11.706" cy="31.46" rx="11.706" ry="31.46" transform="matrix(0.710651 0.703545 -0.710651 0.703545 169.714 13.8311)" fill="#262626"/>
<ellipse cx="11.706" cy="31.46" rx="11.706" ry="31.46" transform="matrix(0.710651 -0.703545 0.710651 0.703545 125 140.222)" fill="#262626"/>
<ellipse cx="11.706" cy="31.46" rx="11.706" ry="31.46" transform="matrix(0.710651 0.703545 -0.710651 0.703545 58.6847 123.75)" fill="#262626"/>
<rect width="35.1181" height="35.1181" rx="8" transform="matrix(0.710651 -0.703545 0.710651 0.703545 75.0433 99)" fill="#2C7EEB"/>
</svg>
