<svg width="835" height="237" viewBox="0 0 835 237" fill="none" xmlns="http://www.w3.org/2000/svg">
<ellipse cx="118.498" cy="37.4669" rx="13.941" ry="37.4669" fill="#333333"/>
<ellipse cx="199.53" cy="116.758" rx="13.9412" ry="37.4664" transform="rotate(90 199.53 116.758)" fill="#333333"/>
<ellipse cx="118.498" cy="199.533" rx="13.941" ry="37.4669" transform="rotate(180 118.498 199.533)" fill="#333333"/>
<ellipse cx="37.4664" cy="118.5" rx="13.9412" ry="37.4664" transform="rotate(-90 37.4664 118.5)" fill="#333333"/>
<ellipse cx="13.9411" cy="37.4666" rx="13.9411" ry="37.4666" transform="matrix(0.707102 -0.707112 0.707102 0.707112 16.5549 36.271)" fill="#333333"/>
<ellipse cx="13.9411" cy="37.4666" rx="13.9411" ry="37.4666" transform="matrix(0.707102 0.707112 -0.707102 0.707112 201.108 16.5552)" fill="#333333"/>
<ellipse cx="13.9411" cy="37.4666" rx="13.9411" ry="37.4666" transform="matrix(0.707102 -0.707112 0.707102 0.707112 148.123 167.841)" fill="#333333"/>
<ellipse cx="13.9411" cy="37.4666" rx="13.9411" ry="37.4666" transform="matrix(0.707102 0.707112 -0.707102 0.707112 69.5404 148.125)" fill="#333333"/>
<rect width="41.8232" height="41.8232" rx="10" transform="matrix(0.707102 -0.707112 0.707102 0.707112 88.925 118.5)" fill="#0F66A3"/>
<path class="wordmark-dark" d="M325.694 159.278C319.602 159.278 314.429 158.121 310.174 155.807C306.016 153.494 302.535 150.168 299.731 145.83L309.159 137.298C311.48 141.058 313.897 143.661 316.411 145.107C319.022 146.553 322.261 147.276 326.129 147.276C330.48 147.276 333.865 146.36 336.282 144.528C338.796 142.6 340.053 139.756 340.053 135.997C340.053 133.78 339.473 131.948 338.313 130.502C337.153 129.056 335.025 127.803 331.931 126.742L325.694 124.573C319.505 122.452 315.106 119.898 312.495 116.909C309.981 113.921 308.724 109.92 308.724 104.907C308.724 101.533 309.304 98.4001 310.464 95.508C311.625 92.5196 313.317 89.9167 315.541 87.6995C317.862 85.4823 320.714 83.747 324.099 82.4938C327.58 81.2406 331.641 80.614 336.282 80.614C341.504 80.614 345.904 81.5298 349.481 83.3614C353.156 85.193 356.443 88.0851 359.344 92.0376L349.916 100.569C346.532 95.267 341.601 92.616 335.122 92.616C331.061 92.616 327.966 93.5318 325.839 95.3634C323.808 97.0987 322.793 99.6533 322.793 103.027C322.793 105.341 323.373 107.221 324.534 108.667C325.791 110.016 327.821 111.173 330.626 112.137L336.862 114.306C343.051 116.427 347.451 118.982 350.061 121.97C352.769 124.862 354.123 128.911 354.123 134.117C354.123 141.925 351.56 148.095 346.435 152.626C341.31 157.061 334.397 159.278 325.694 159.278Z" fill="#333333"/>
<path class="wordmark-dark" d="M388.702 82.3492L379.564 128.477C378.791 131.852 378.404 134.936 378.404 137.732C378.404 141.106 379.081 143.516 380.435 144.962C381.788 146.408 383.867 147.131 386.672 147.131C389.186 147.131 391.361 146.601 393.199 145.541C395.036 144.384 396.776 142.745 398.42 140.624C400.257 138.31 401.804 135.708 403.062 132.816C404.415 129.827 405.382 126.935 405.962 124.139L414.375 82.3492H428.734L416.116 145.685H424.528L422.207 157.543H410.169C404.174 157.543 401.176 154.747 401.176 149.156C401.176 148.481 401.224 147.806 401.321 147.131C401.418 146.36 401.563 145.589 401.756 144.818L402.336 141.781H400.741C396.389 153.445 389.186 159.278 379.129 159.278C373.811 159.278 369.846 157.639 367.236 154.361C364.721 151.084 363.464 146.36 363.464 140.19C363.464 138.551 363.609 136.768 363.9 134.84C364.19 132.816 364.528 130.887 364.915 129.056L374.343 82.3492H388.702Z" fill="#333333"/>
<path class="wordmark-dark" d="M430.248 157.543L445.333 82.3492H459.692L456.501 98.1109H458.242C459.886 93.0016 462.255 89.0973 465.349 86.3981C468.443 83.6988 472.553 82.3492 477.678 82.3492H481.884L478.838 96.5203H472.166C466.751 96.5203 462.545 97.9181 459.547 100.714C456.646 103.509 454.567 107.992 453.31 114.162L444.608 157.543H430.248Z" fill="#333333"/>
<path class="wordmark-dark" d="M490.962 172.292C489.995 177.209 488.206 180.775 485.595 182.993C482.984 185.306 479.213 186.463 474.282 186.463H461.663L463.984 174.606H476.167L492.267 94.2066H482.259L484.58 82.3492H494.733L498.214 64.7077C499.181 59.7912 500.97 56.2243 503.581 54.0071C506.191 51.6934 509.963 50.5366 514.894 50.5366H528.383L525.917 62.394H513.008L509.092 82.3492H521.856L519.535 94.2066H506.627L490.962 172.292Z" fill="#333333"/>
<path class="wordmark-primary" d="M538.75 159.278C532.659 159.278 527.485 158.121 523.231 155.807C519.073 153.494 515.592 150.168 512.788 145.83L522.215 137.298C524.536 141.058 526.954 143.661 529.468 145.107C532.078 146.553 535.318 147.276 539.186 147.276C543.537 147.276 546.921 146.36 549.339 144.528C551.853 142.6 553.11 139.756 553.11 135.997C553.11 133.78 552.53 131.948 551.369 130.502C550.209 129.056 548.082 127.803 544.987 126.742L538.75 124.573C532.562 122.452 528.162 119.898 525.551 116.909C523.037 113.921 521.78 109.92 521.78 104.907C521.78 101.533 522.36 98.4001 523.521 95.508C524.681 92.5196 526.373 89.9167 528.597 87.6995C530.918 85.4823 533.771 83.747 537.155 82.4938C540.636 81.2406 544.697 80.614 549.339 80.614C554.56 80.614 558.96 81.5298 562.538 83.3614C566.212 85.193 569.5 88.0851 572.401 92.0376L562.973 100.569C559.588 95.267 554.657 92.616 548.178 92.616C544.117 92.616 541.023 93.5318 538.895 95.3634C536.865 97.0987 535.85 99.6533 535.85 103.027C535.85 105.341 536.43 107.221 537.59 108.667C538.847 110.016 540.878 111.173 543.682 112.137L549.919 114.306C556.107 116.427 560.507 118.982 563.118 121.97C565.825 124.862 567.179 128.911 567.179 134.117C567.179 141.925 564.617 148.095 559.492 152.626C554.367 157.061 547.453 159.278 538.75 159.278Z" fill="#0F66A3"/>
<path class="wordmark-primary" d="M600.018 159.278C595.667 159.278 591.896 158.603 588.705 157.253C585.514 155.807 582.903 153.879 580.872 151.469C578.842 148.963 577.294 146.023 576.231 142.648C575.264 139.274 574.78 135.563 574.78 131.514C574.78 129.104 574.925 126.453 575.216 123.561C575.602 120.572 576.037 117.777 576.521 115.174C578.745 104.377 582.709 95.9418 588.415 89.8685C594.216 83.6988 601.662 80.614 610.751 80.614C617.713 80.614 623.08 82.301 626.851 85.6751C630.719 89.0491 633.185 93.4354 634.249 98.8339L622.065 103.895C621.388 99.9425 620.083 97.0987 618.149 95.3634C616.215 93.6282 613.41 92.7606 609.736 92.7606C605.095 92.7606 601.42 94.2548 598.713 97.2433C596.102 100.232 594.12 104.955 592.766 111.414L589.72 126.598C589.526 127.658 589.381 128.815 589.285 130.068C589.188 131.225 589.14 132.334 589.14 133.394C589.14 138.214 590.155 141.733 592.186 143.95C594.313 146.071 597.359 147.131 601.323 147.131C605.385 147.131 608.624 146.071 611.041 143.95C613.556 141.829 615.634 138.359 617.278 133.539L628.737 138.889C626.029 145.637 622.21 150.746 617.278 154.217C612.444 157.591 606.69 159.278 600.018 159.278Z" fill="#0F66A3"/>
<path class="wordmark-primary" d="M682.614 157.543C676.522 157.543 673.476 154.843 673.476 149.445C673.476 148.192 673.67 146.649 674.056 144.818L674.782 141.058H673.186C670.865 147.131 668.013 151.71 664.628 154.795C661.244 157.784 656.844 159.278 651.429 159.278C645.338 159.278 640.696 157.205 637.505 153.06C634.314 148.915 632.719 142.889 632.719 134.985C632.719 132.189 632.864 129.2 633.154 126.019C633.541 122.838 634.024 119.801 634.604 116.909C636.828 105.341 640.551 96.4239 645.773 90.1577C650.994 83.7952 657.763 80.614 666.079 80.614C670.72 80.614 674.492 81.8672 677.392 84.3736C680.39 86.8801 682.034 90.4469 682.324 95.0742H684.064L686.53 82.3492H700.89L688.126 145.685H696.828L694.508 157.543H682.614ZM657.956 147.131C663.081 147.131 667.384 144.673 670.865 139.756C672.509 137.346 674.008 134.792 675.362 132.093C676.812 129.297 677.779 126.646 678.263 124.139L681.599 107.076C681.985 105.245 681.937 103.509 681.454 101.871C681.067 100.135 680.293 98.5929 679.133 97.2433C678.069 95.8936 676.667 94.8332 674.927 94.062C673.186 93.1944 671.204 92.7606 668.98 92.7606C664.048 92.7606 660.132 94.3512 657.231 97.5325C654.33 100.714 652.251 105.437 650.994 111.704L648.238 125.585C647.852 127.224 647.562 128.959 647.368 130.791C647.272 132.526 647.223 133.924 647.223 134.985C647.223 143.082 650.801 147.131 657.956 147.131Z" fill="#0F66A3"/>
<path class="wordmark-primary" d="M717.461 82.3492H731.82L728.484 98.8339H730.08C732.4 92.7606 735.253 88.2297 738.637 85.2413C742.022 82.1564 746.421 80.614 751.836 80.614C757.928 80.614 762.57 82.6866 765.761 86.8319C768.952 90.9772 770.547 97.0023 770.547 104.907C770.547 107.703 770.354 110.691 769.967 113.873C769.677 117.054 769.242 120.09 768.662 122.983C766.438 134.551 762.715 143.516 757.493 149.879C752.271 156.145 745.503 159.278 737.187 159.278C732.545 159.278 728.726 158.025 725.728 155.518C722.828 153.012 721.232 149.445 720.942 144.818H719.201L710.934 186.463H696.574L717.461 82.3492ZM734.286 147.131C739.217 147.131 743.134 145.541 746.035 142.359C748.935 139.178 751.014 134.454 752.271 128.188L755.027 114.306C755.414 112.668 755.656 110.981 755.753 109.245C755.946 107.51 756.043 106.112 756.043 105.052C756.043 96.8577 752.465 92.7606 745.309 92.7606C740.184 92.7606 735.882 95.2188 732.4 100.135C730.757 102.545 729.209 105.148 727.759 107.944C726.405 110.643 725.487 113.246 725.003 115.752L721.667 132.816C721.28 134.647 721.28 136.431 721.667 138.166C722.151 139.901 722.924 141.443 723.988 142.793C725.148 144.046 726.599 145.107 728.339 145.974C730.08 146.746 732.062 147.131 734.286 147.131Z" fill="#0F66A3"/>
<path class="wordmark-primary" d="M800.915 159.278C791.825 159.278 785.153 156.82 780.898 151.903C776.644 146.89 774.517 140.094 774.517 131.514C774.517 129.104 774.662 126.405 774.952 123.416C775.242 120.428 775.677 117.68 776.257 115.174C778.771 103.895 782.977 95.3152 788.876 89.4347C794.774 83.5542 802.365 80.614 811.648 80.614C818.417 80.614 823.977 82.3492 828.328 85.8197C832.776 89.1937 835 94.2548 835 101.003C835 109.486 831.277 115.704 823.832 119.657C816.483 123.609 805.073 125.778 789.601 126.164C789.311 127.513 789.118 128.815 789.021 130.068C788.924 131.321 788.876 132.382 788.876 133.249C788.876 138.069 789.891 141.588 791.922 143.805C794.049 146.023 797.288 147.131 801.64 147.131C809.956 147.131 816.531 143.323 821.366 135.708L830.214 143.227C823.445 153.928 813.678 159.278 800.915 159.278ZM810.052 92.3268C805.411 92.3268 801.688 93.821 798.884 96.8095C796.08 99.7015 794.049 104.088 792.792 109.968L791.487 116.042C797.288 115.752 802.075 115.319 805.846 114.74C809.617 114.065 812.566 113.198 814.694 112.137C816.918 110.981 818.465 109.583 819.335 107.944C820.205 106.305 820.641 104.377 820.641 102.16C820.641 95.6044 817.111 92.3268 810.052 92.3268Z" fill="#0F66A3"/>
<style>
ellipse,
.wordmark-dark {
    fill: #eee;
}
rect,
.wordmark-primary {
fill: hsl(208, 100%, 80%);
}


</style>
</svg>
