<svg width="934" height="256" viewBox="0 0 934 256" fill="none" xmlns="http://www.w3.org/2000/svg">
<ellipse cx="128" cy="40.4706" rx="15.0588" ry="40.4706" fill="#F7F7F7"/>
<ellipse cx="215.529" cy="126.118" rx="15.0588" ry="40.4706" transform="rotate(90 215.529 126.118)" fill="#F7F7F7"/>
<ellipse cx="128" cy="215.529" rx="15.0588" ry="40.4706" transform="rotate(180 128 215.529)" fill="#F7F7F7"/>
<ellipse cx="40.4706" cy="128" rx="15.0588" ry="40.4706" transform="rotate(-90 40.4706 128)" fill="#F7F7F7"/>
<ellipse cx="57.1475" cy="57.1475" rx="15.0588" ry="40.4706" transform="rotate(-45 57.1475 57.1475)" fill="#F7F7F7"/>
<ellipse cx="199.265" cy="57.1475" rx="15.0588" ry="40.4706" transform="rotate(45 199.265 57.1475)" fill="#F7F7F7"/>
<ellipse cx="199.265" cy="199.265" rx="15.0588" ry="40.4706" transform="rotate(-45 199.265 199.265)" fill="#F7F7F7"/>
<ellipse cx="57.1476" cy="199.265" rx="15.0588" ry="40.4706" transform="rotate(45 57.1476 199.265)" fill="#F7F7F7"/>
<rect x="96.0554" y="128" width="45.1765" height="45.1765" rx="12" transform="rotate(-45 96.0554 128)" fill="#99CFFF"/>
<path d="M354.255 182.965C348.027 182.965 342.441 181.976 337.498 179.999C332.555 178.022 328.7 175.155 325.932 171.398C323.163 167.642 321.829 163.094 321.928 157.756H338.684C338.783 162.007 340.513 165.17 343.874 167.246C347.236 169.223 351.19 170.212 355.738 170.212C360.582 170.212 364.19 169.372 366.563 167.691C368.935 165.912 370.319 163.638 370.715 160.87C371.11 158.497 370.764 156.718 369.677 155.531C368.688 154.345 367.353 153.505 365.673 153.011C363.992 152.417 362.312 151.973 360.631 151.676C358.753 151.281 356.726 150.836 354.551 150.341C352.376 149.847 350.547 149.402 349.065 149.007C345.407 147.919 341.947 146.585 338.684 145.003C335.521 143.421 333.099 141.197 331.418 138.33C329.836 135.463 329.392 131.756 330.084 127.208C331.072 121.079 334.038 115.988 338.981 111.935C343.924 107.881 350.745 105.855 359.445 105.855C365.376 105.855 370.517 106.745 374.867 108.524C379.315 110.303 382.677 112.973 384.95 116.532C387.323 119.992 388.41 124.292 388.213 129.433H372.346C372.544 125.874 371.258 123.205 368.49 121.425C365.722 119.547 362.46 118.608 358.703 118.608C354.452 118.608 351.141 119.349 348.768 120.832C346.494 122.315 345.209 124.391 344.912 127.06C344.517 129.532 345.16 131.36 346.84 132.547C348.62 133.733 351.091 134.722 354.255 135.512C355.342 135.809 356.627 136.155 358.11 136.551C359.593 136.847 361.076 137.144 362.559 137.44C364.042 137.737 365.179 137.984 365.969 138.182C368.639 138.775 371.258 139.516 373.829 140.406C376.399 141.197 378.673 142.383 380.65 143.965C382.726 145.547 384.258 147.672 385.247 150.341C386.236 152.912 386.483 156.223 385.988 160.277C385.395 164.528 383.814 168.383 381.243 171.843C378.673 175.303 375.114 178.022 370.566 179.999C366.019 181.976 360.582 182.965 354.255 182.965ZM414.66 182.965C405.565 182.965 398.793 180.147 394.345 174.512C389.995 168.779 388.611 160.425 390.193 149.452L395.976 107.634H412.288L406.504 148.414C405.615 155.334 406.257 160.524 408.432 163.984C410.706 167.345 414.66 169.026 420.295 169.026C424.052 169.026 427.561 168.235 430.824 166.653C434.086 164.972 436.854 162.501 439.128 159.239C441.5 155.976 442.983 152.071 443.576 147.524L449.211 107.634H465.523L455.143 181.185H438.831L440.462 169.915C437.596 173.969 433.888 177.182 429.341 179.554C424.892 181.828 419.999 182.965 414.66 182.965ZM462.867 181.185L473.247 107.634H489.41L487.928 118.608C490.201 115.049 492.92 112.231 496.083 110.155C499.247 108.079 502.806 107.041 506.76 107.041H516.695L514.471 121.722H503.498C498.654 121.722 494.502 123.649 491.042 127.505C487.582 131.36 485.258 137.49 484.072 145.893L479.178 181.185H462.867ZM518.454 181.185L530.317 96.216C531.207 89.9879 532.591 85.3415 534.469 82.2769C536.348 79.1134 539.017 77.0374 542.477 76.0488C545.937 74.9613 550.435 74.4176 555.971 74.4176H564.72L562.644 88.3567H557.454C554.884 88.3567 552.857 88.6533 551.374 89.2465C549.891 89.7408 548.754 90.6799 547.964 92.0639C547.271 93.3491 546.728 95.2769 546.332 97.8472L534.766 181.185H518.454ZM516.23 121.425L518.306 107.634H560.123L558.047 121.425H516.23Z" fill="#F7F7F7"/>
<path d="M585.834 182.965C579.606 182.965 574.02 181.976 569.077 179.999C564.134 178.022 560.279 175.155 557.511 171.398C554.743 167.642 553.408 163.094 553.507 157.756H570.264C570.362 162.007 572.092 165.17 575.454 167.246C578.815 169.223 582.769 170.212 587.317 170.212C592.161 170.212 595.769 169.372 598.142 167.691C600.514 165.912 601.898 163.638 602.294 160.87C602.689 158.497 602.343 156.718 601.256 155.531C600.267 154.345 598.933 153.505 597.252 153.011C595.571 152.417 593.891 151.973 592.21 151.676C590.332 151.281 588.305 150.836 586.13 150.341C583.956 149.847 582.127 149.402 580.644 149.007C576.986 147.919 573.526 146.585 570.264 145.003C567.1 143.421 564.678 141.197 562.997 138.33C561.416 135.463 560.971 131.756 561.663 127.208C562.651 121.079 565.617 115.988 570.56 111.935C575.503 107.881 582.324 105.855 591.024 105.855C596.956 105.855 602.096 106.745 606.446 108.524C610.895 110.303 614.256 112.973 616.53 116.532C618.902 119.992 619.99 124.292 619.792 129.433H603.925C604.123 125.874 602.838 123.205 600.07 121.425C597.302 119.547 594.039 118.608 590.283 118.608C586.032 118.608 582.72 119.349 580.347 120.832C578.073 122.315 576.788 124.391 576.492 127.06C576.096 129.532 576.739 131.36 578.419 132.547C580.199 133.733 582.67 134.722 585.834 135.512C586.921 135.809 588.206 136.155 589.689 136.551C591.172 136.847 592.655 137.144 594.138 137.44C595.621 137.737 596.758 137.984 597.549 138.182C600.218 138.775 602.838 139.516 605.408 140.406C607.978 141.197 610.252 142.383 612.229 143.965C614.305 145.547 615.838 147.672 616.826 150.341C617.815 152.912 618.062 156.223 617.568 160.277C616.974 164.528 615.393 168.383 612.822 171.843C610.252 175.303 606.693 178.022 602.146 179.999C597.598 181.976 592.161 182.965 585.834 182.965ZM655.713 182.965C648.595 182.965 642.416 181.433 637.176 178.368C631.937 175.303 627.983 171.052 625.313 165.615C622.644 160.178 621.557 153.999 622.051 147.079C622.446 141.246 623.781 135.809 626.055 130.767C628.329 125.725 631.393 121.376 635.249 117.718C639.104 113.961 643.503 111.045 648.446 108.969C653.389 106.893 658.728 105.855 664.462 105.855C673.557 105.855 680.971 108.178 686.705 112.824C692.538 117.471 695.8 123.897 696.492 132.102H679.884C679.389 128.246 677.61 125.281 674.545 123.205C671.579 121.03 667.872 119.942 663.424 119.942C658.975 119.942 654.872 121.178 651.116 123.649C647.458 126.022 644.443 129.334 642.07 133.585C639.796 137.737 638.511 142.334 638.214 147.376C637.918 151.528 638.462 155.235 639.846 158.497C641.329 161.76 643.503 164.33 646.37 166.208C649.237 167.988 652.697 168.877 656.751 168.877C659.617 168.877 662.386 168.383 665.055 167.395C667.724 166.406 670.047 164.972 672.024 163.094C674.1 161.216 675.583 158.893 676.473 156.125H693.674C691.895 161.562 689.077 166.307 685.222 170.36C681.465 174.414 677.017 177.528 671.876 179.702C666.834 181.877 661.446 182.965 655.713 182.965ZM718.32 182.965C710.115 182.965 703.838 181.037 699.488 177.182C695.237 173.326 693.111 168.63 693.111 163.094C693.111 157.855 694.545 153.258 697.412 149.303C700.378 145.349 704.48 142.235 709.72 139.961C714.959 137.589 721.138 136.402 728.256 136.402C732.606 136.402 736.362 136.748 739.526 137.44C742.788 138.033 745.408 138.725 747.385 139.516L747.978 135.661C748.769 130.026 747.83 125.874 745.161 123.205C742.491 120.535 738.685 119.201 733.742 119.201C729.689 119.201 726.031 120.041 722.769 121.722C719.606 123.402 717.332 126.17 715.948 130.026H699.488C700.773 124.687 703.146 120.239 706.606 116.68C710.165 113.121 714.366 110.452 719.21 108.672C724.054 106.794 729.195 105.855 734.632 105.855C745.507 105.855 753.465 108.623 758.507 114.159C763.647 119.596 765.526 126.961 764.142 136.254L760.879 160.128C760.385 163.292 760.583 165.318 761.472 166.208C762.461 166.999 764.488 167.395 767.552 167.395H768.59L766.662 181.185H762.51C757.567 181.185 753.514 180.444 750.351 178.961C747.286 177.478 745.408 174.611 744.716 170.36C741.75 173.919 738.092 176.934 733.742 179.406C729.393 181.779 724.252 182.965 718.32 182.965ZM709.868 161.018C709.868 163.786 710.955 166.011 713.13 167.691C715.404 169.273 718.419 170.064 722.176 170.064C727.613 170.064 732.358 168.383 736.412 165.022C740.465 161.562 743.381 156.619 745.161 150.193C743.085 149.501 740.613 148.908 737.746 148.414C734.978 147.82 732.161 147.524 729.294 147.524C724.944 147.524 721.336 148.166 718.469 149.452C715.602 150.737 713.427 152.417 711.944 154.493C710.56 156.471 709.868 158.646 709.868 161.018ZM765.43 213.809L780.407 107.634H796.57L794.939 118.608C797.806 115.148 801.464 112.182 805.913 109.71C810.361 107.14 815.749 105.855 822.076 105.855C829.194 105.855 835.274 107.634 840.316 111.193C845.357 114.653 849.015 119.349 851.289 125.281C853.563 131.212 854.156 137.836 853.068 145.151C852.08 152.269 849.658 158.695 845.802 164.429C842.046 170.163 837.251 174.71 831.418 178.071C825.586 181.334 819.16 182.965 812.141 182.965C806.209 182.965 801.167 181.828 797.015 179.554C792.962 177.182 789.947 173.969 787.97 169.915L781.742 213.809H765.43ZM810.065 168.729C814.612 168.729 818.764 167.642 822.521 165.467C826.278 163.292 829.392 160.326 831.863 156.569C834.433 152.813 836.065 148.611 836.757 143.965C837.35 139.417 836.954 135.364 835.57 131.805C834.285 128.147 832.11 125.281 829.046 123.205C826.08 121.128 822.373 120.09 817.924 120.09C813.673 120.09 809.62 121.128 805.764 123.205C801.909 125.281 798.646 128.197 795.977 131.954C793.407 135.71 791.776 140.208 791.084 145.448C790.491 149.995 790.886 154.049 792.27 157.607C793.654 161.068 795.878 163.786 798.943 165.763C802.008 167.741 805.715 168.729 810.065 168.729ZM887.851 182.965C880.437 182.965 874.06 181.284 868.722 177.923C863.483 174.562 859.627 169.915 857.156 163.984C854.783 158.052 854.14 151.33 855.228 143.817C856.315 136.303 858.787 129.729 862.642 124.094C866.597 118.36 871.54 113.912 877.471 110.748C883.403 107.486 890.076 105.855 897.49 105.855C904.904 105.855 911.083 107.486 916.026 110.748C921.068 114.011 924.726 118.36 926.999 123.798C929.273 129.235 929.916 135.265 928.927 141.889C928.828 142.779 928.68 143.767 928.482 144.855C928.285 145.942 928.087 147.079 927.889 148.265H866.498L868.129 137.292H913.357C913.752 131.756 912.368 127.357 909.205 124.094C906.14 120.832 901.889 119.201 896.452 119.201C892.597 119.201 888.889 120.14 885.33 122.018C881.771 123.798 878.756 126.368 876.285 129.729C873.912 133.09 872.33 137.193 871.54 142.037L870.798 146.189C870.007 151.033 870.304 155.235 871.688 158.794C873.171 162.254 875.395 164.923 878.361 166.801C881.425 168.581 884.836 169.471 888.593 169.471C892.943 169.471 896.798 168.433 900.159 166.357C903.52 164.28 906.19 161.562 908.167 158.201H924.923C923.045 162.847 920.228 167.049 916.471 170.805C912.813 174.562 908.562 177.528 903.718 179.702C898.874 181.877 893.585 182.965 887.851 182.965Z" fill="#99CFFF"/>
</svg>
